<svg xmlns="http://www.w3.org/2000/svg" viewBox="0 0 32 32" fill="none">
  <circle cx="16" cy="16" r="16" fill="#1e293b"/>
  <path d="M16 6C14.3431 6 13 7.34315 13 9C13 10.3 13.8 11.4 15 11.8V14C12 14.5 10 16.5 10 19V21H22V19C22 16.5 20 14.5 17 14V11.8C18.2 11.4 19 10.3 19 9C19 7.34315 17.6569 6 16 6Z" fill="#FACC15"/>
  <path d="M10 23H22V25C22 25.5523 21.5523 26 21 26H11C10.4477 26 10 25.5523 10 25V23Z" fill="#EAB308"/>
  <path d="M16 6C17.6569 6 19 7.34315 19 9C19 10.6569 17.6569 12 16 12C14.3431 12 13 10.6569 13 9C13 7.34315 14.3431 6 16 6Z" fill="#FEF08A"/>
</svg>
